<svg id="Layer_1" data-name="Layer 1" xmlns="http://www.w3.org/2000/svg" viewBox="0 0 90.26 122.88"><defs><style>.cls-1{fill-rule:evenodd;}</style></defs><title>imaging</title><path class="cls-1" d="M32.78,41.79c-2-2.75-4.46-7-5.15-9.37-2.19-3.47-3-9-.58-12.67.95-1.46.54-2.72.54-4.74,0-20,35-20,35,0,0,2.53-.57,3.12.79,5.11,2.29,3.33,1.12,9.23-.82,12.31l-4.83,9c-5.79,8.31-18.79,9-25,.31Zm-.69,2.93,2.64,6.92H55.79l2.39-6.92c3.56,3.21,13.9,5,21,6.92h4a7.07,7.07,0,0,1,7.06,7.06v57.12a7.06,7.06,0,0,1-2.07,5h0a7,7,0,0,1-5,2.08H7.06A7.08,7.08,0,0,1,0,115.82V58.7a7,7,0,0,1,2.07-5h0a7,7,0,0,1,5-2.07h3.71c7.21-2,17.23-3.23,21.32-6.92Zm16.14,13.2v2.74A57.64,57.64,0,0,1,73,68.22a3.13,3.13,0,0,1-3,5.47,51.86,51.86,0,0,0-21.76-6.77V74.1a54.16,54.16,0,0,1,27.29,9.22A3.13,3.13,0,1,1,72,88.52a47.86,47.86,0,0,0-23.81-8.13v6.85a57.23,57.23,0,0,1,23.88,7,3.13,3.13,0,1,1-2.94,5.52A51.25,51.25,0,0,0,48.23,93.5v7.42c0,.1,0,.2,0,.31,7-.71,12.26-3.33,12.26,1.78,0,5.82-6.82,10.53-15.22,10.53S30,108.83,30,103c0-5,5.11-2.57,11.94-1.82a2.44,2.44,0,0,1,0-.27V93.53a53.42,53.42,0,0,0-21,6.36,3.13,3.13,0,1,1-2.91-5.54A59.35,59.35,0,0,1,42,87.26V80.41a49.83,49.83,0,0,0-23.84,8.13,3.13,3.13,0,1,1-3.43-5.24A55.9,55.9,0,0,1,42,74.12V66.94A53.8,53.8,0,0,0,20.16,73.7a3.13,3.13,0,0,1-3-5.49A59.54,59.54,0,0,1,42,60.68V57.92H7.06a.82.82,0,0,0-.56.22.8.8,0,0,0-.22.56v57.12a.79.79,0,0,0,.78.78H83.2a.79.79,0,0,0,.55-.23.76.76,0,0,0,.24-.55V58.7a.82.82,0,0,0-.24-.55.79.79,0,0,0-.55-.23Z"/></svg>